# File created by Blade
# Date/Time:  Fri Jan 16 19:18:57 2015
# Frame Rate: 120.000 fps
#------------------------------------------------------
:FULLY-SPECIFIED
:DEGREES
968
root 19.557659 35.722626 -20.989720 -171.878986 0.098119 -179.472176
Spine -15.882235 1.459996 -0.464477
Head 7.694818 -2.649551 0.708759
LeftShoulder -11.124898 -31.954732 21.289986
LeftArm 3.337077 4.331468 -6.876064
LeftForeArm 24.056924 -0.000000 0.177207
LeftHand 0.323428 -0.000000 7.246797
LeftHandThumb1 -26.253704 0.000000 33.147579
RightShoulder -9.398567 -1.314491 -12.639878
RightArm 3.492080 42.702292 7.903239
RightForeArm -36.057865 0.000000 6.061568
RightHand -4.288416 -0.000000 -7.206001
RightHandThumb1 -24.326973 -0.000000 -32.862282
LeftUpLeg -1.576096 10.066200 -1.118730
LeftLeg -5.892508 -0.000000 0.000000
LeftFoot -18.706491 26.026687 -13.684436
LeftToeBase 25.592246 -0.000000 -0.000000
RightUpLeg -2.756269 -5.868660 -0.382161
RightLeg -2.123389 -0.000000 0.000000
RightFoot -19.742768 -24.616074 15.761998
RightToeBase 23.745293 -0.000000 -0.000000
969
root 19.564766 35.721137 -20.986210 -171.841574 0.049178 -179.468735
Spine -15.927790 1.387376 -0.469564
Head 7.750116 -2.717876 0.752768
LeftShoulder -11.171032 -31.864529 21.089070
LeftArm 3.281355 4.414197 -7.064449
LeftForeArm 24.118843 -0.000000 0.140541
LeftHand 0.017432 0.000000 7.141376
LeftHandThumb1 -26.253704 0.000000 33.147579
RightShoulder -9.411968 -1.390267 -12.490918
RightArm 3.440461 42.520565 8.134534
RightForeArm -35.975356 -0.000000 6.057952
RightHand -4.263196 -0.000000 -6.968093
RightHandThumb1 -24.326973 -0.000000 -32.862282
LeftUpLeg -1.628518 10.038853 -1.107446
LeftLeg -5.888423 -0.000000 0.000000
LeftFoot -18.697931 26.021886 -13.642122
LeftToeBase 25.579442 -0.000000 -0.000000
RightUpLeg -2.799229 -5.886236 -0.358974
RightLeg -2.110064 -0.000000 0.000000
RightFoot -19.741790 -24.646111 15.704114
RightToeBase 23.744869 -0.000000 -0.000000
970
root 19.572856 35.719563 -20.982863 -171.826501 0.005695 -179.462718
Spine -15.954044 1.280935 -0.469014
Head 7.836041 -2.747545 0.818768
LeftShoulder -11.235583 -31.759872 20.919548
LeftArm 3.205776 4.457718 -7.243597
LeftForeArm 24.083821 -0.000000 0.076562
LeftHand -0.048312 -0.000000 6.902423
LeftHandThumb1 -26.253704 0.000000 33.147579
RightShoulder -9.373926 -1.438225 -12.311799
RightArm 3.394787 42.436582 8.317748
RightForeArm -35.917717 -0.000000 6.003350
RightHand -4.270671 -0.000000 -6.815416
RightHandThumb1 -24.326973 -0.000000 -32.862282
LeftUpLeg -1.662505 10.027345 -1.090205
LeftLeg -5.873871 -0.000000 0.000000
LeftFoot -18.698051 26.006715 -13.609566
LeftToeBase 25.585048 -0.000000 -0.000000
RightUpLeg -2.819125 -5.881193 -0.336588
RightLeg -2.099885 -0.000000 0.000000
RightFoot -19.756419 -24.680458 15.704277
RightToeBase 23.670635 -0.000000 -0.000000
971
root 19.580997 35.718008 -20.981410 -171.798610 -0.028322 -179.451133
Spine -15.996899 1.229981 -0.474460
Head 7.898158 -2.831257 0.869166
LeftShoulder -11.247522 -31.732017 20.750489
LeftArm 3.098273 4.512605 -7.429347
LeftForeArm 24.045527 -0.000000 0.010615
LeftHand -0.230101 0.000000 6.741943
LeftHandThumb1 -26.253704 0.000000 33.147579
RightShoulder -9.408372 -1.474728 -12.123170
RightArm 3.401125 42.445522 8.499286
RightForeArm -35.933720 0.000000 5.913269
RightHand -4.255711 -0.000000 -6.518742
RightHandThumb1 -24.326973 -0.000000 -32.862282
LeftUpLeg -1.698031 10.039819 -1.071611
LeftLeg -5.877822 -0.000000 0.000000
LeftFoot -18.687367 25.991218 -13.548851
LeftToeBase 25.628726 -0.000000 -0.000000
RightUpLeg -2.844522 -5.868919 -0.306955
RightLeg -2.099652 -0.000000 0.000000
RightFoot -19.778279 -24.727370 15.670015
RightToeBase 23.750850 -0.000000 -0.000000
972
root 19.589319 35.716413 -20.980692 -171.767645 -0.067892 -179.439016
Spine -16.055520 1.192038 -0.480157
Head 7.981872 -2.938384 0.906729
LeftShoulder -11.189704 -31.744123 20.583464
LeftArm 2.876269 4.594594 -7.599140
LeftForeArm 23.937574 -0.000000 0.044978
LeftHand -0.388455 -0.000000 6.410691
LeftHandThumb1 -26.253704 0.000000 33.147579
RightShoulder -9.466573 -1.545556 -11.955507
RightArm 3.415146 42.590597 8.737930
RightForeArm -36.033674 -0.000000 5.914437
RightHand -4.329097 -0.000000 -6.467098
RightHandThumb1 -24.326973 -0.000000 -32.862282
LeftUpLeg -1.732928 10.039579 -1.051180
LeftLeg -5.887048 -0.000000 0.000000
LeftFoot -18.677653 25.978622 -13.513831
LeftToeBase 25.713691 -0.000000 -0.000000
RightUpLeg -2.868212 -5.846937 -0.276444
RightLeg -2.102747 -0.000000 0.000000
RightFoot -19.789359 -24.788161 15.637213
RightToeBase 23.732170 -0.000000 -0.000000
973
root 19.598624 35.714848 -20.980629 -171.743657 -0.098870 -179.429090
Spine -16.105893 1.145120 -0.493596
Head 8.065588 -3.023186 0.969498
LeftShoulder -11.167017 -31.677988 20.402469
LeftArm 2.755479 4.541486 -7.750755
LeftForeArm 23.872647 0.000000 -0.028131
LeftHand -0.588669 -0.000000 6.193535
LeftHandThumb1 -26.253704 0.000000 33.147579
RightShoulder -9.472071 -1.495330 -11.778110
RightArm 3.316185 42.626734 8.815509
RightForeArm -35.952676 -0.000000 5.824660
RightHand -4.251006 0.000000 -5.849361
RightHandThumb1 -24.326973 -0.000000 -32.862282
LeftUpLeg -1.754907 10.041552 -1.029202
LeftLeg -5.898451 -0.000000 0.000000
LeftFoot -18.663136 25.957063 -13.466389
LeftToeBase 25.702422 -0.000000 -0.000000
RightUpLeg -2.889088 -5.833375 -0.246422
RightLeg -2.102330 -0.000000 0.000000
RightFoot -19.819157 -24.826219 15.651777
RightToeBase 23.735093 -0.000000 -0.000000
974
root 19.607260 35.713448 -20.981287 -171.713604 -0.152380 -179.419202
Spine -16.170204 1.077221 -0.493254
Head 8.161934 -3.068241 0.994764
LeftShoulder -11.142771 -31.584496 20.211274
LeftArm 2.650875 4.500471 -7.882038
LeftForeArm 23.854660 -0.000000 -0.089772
LeftHand -0.826888 -0.000000 5.937409
LeftHandThumb1 -26.253704 0.000000 33.147579
RightShoulder -9.497339 -1.480575 -11.638536
RightArm 3.272824 42.693804 8.994100
RightForeArm -35.835152 -0.000000 5.753390
RightHand -4.090062 0.000000 -5.639419
RightHandThumb1 -24.326973 -0.000000 -32.862282
LeftUpLeg -1.787966 10.025523 -1.006936
LeftLeg -5.903488 -0.000000 0.000000
LeftFoot -18.646356 25.931930 -13.424233
LeftToeBase 25.701778 -0.000000 -0.000000
RightUpLeg -2.910845 -5.863722 -0.212924
RightLeg -2.105377 -0.000000 0.000000
RightFoot -19.836148 -24.860344 15.621240
RightToeBase 23.793897 -0.000000 -0.000000
975
root 19.616703 35.712128 -20.982671 -171.686012 -0.194973 -179.405079
Spine -16.231969 1.021764 -0.492842
Head 8.251293 -3.123063 1.027930
LeftShoulder -11.126050 -31.469210 20.032332
LeftArm 2.567777 4.433742 -8.021312
LeftForeArm 23.724064 -0.000000 -0.206495
LeftHand -0.580556 -0.000000 5.265230
LeftHandThumb1 -26.253704 0.000000 33.147579
RightShoulder -9.559954 -1.555017 -11.464590
RightArm 3.309192 42.932203 9.208609
RightForeArm -35.724692 0.000000 5.725747
RightHand -4.031564 -0.000000 -5.410129
RightHandThumb1 -24.326973 -0.000000 -32.862282
LeftUpLeg -1.810930 10.003665 -0.980200
LeftLeg -5.921385 -0.000000 0.000000
LeftFoot -18.644469 25.937932 -13.398806
LeftToeBase 25.724531 -0.000000 -0.000000
RightUpLeg -2.929604 -5.877648 -0.181699
RightLeg -2.103673 -0.000000 0.000000
RightFoot -19.797173 -24.874501 15.523296
RightToeBase 23.719031 -0.000000 -0.000000
976
root 19.626121 35.710941 -20.985473 -171.638629 -0.239169 -179.394786
Spine -16.330125 1.006249 -0.507694
Head 8.358891 -3.217223 1.048490
LeftShoulder -11.060247 -31.384556 19.844745
LeftArm 2.481600 4.423482 -8.159086
LeftForeArm 23.657289 -0.000000 -0.308452
LeftHand -0.653836 -0.000000 4.922573
LeftHandThumb1 -26.253704 0.000000 33.147579
RightShoulder -9.637460 -1.610028 -11.339149
RightArm 3.243620 43.201836 9.424258
RightForeArm -35.632865 -0.000000 5.797301
RightHand -4.086333 0.000000 -5.121615
RightHandThumb1 -24.326973 -0.000000 -32.862282
LeftUpLeg -1.855278 10.004022 -0.960218
LeftLeg -5.930759 -0.000000 0.000000
LeftFoot -18.620524 25.905408 -13.356727
LeftToeBase 25.699000 -0.000000 -0.000000
RightUpLeg -2.962047 -5.877506 -0.150605
RightLeg -2.111327 -0.000000 0.000000
RightFoot -19.813612 -24.909614 15.498269
RightToeBase 23.748780 -0.000000 -0.000000
977
root 19.636209 35.709440 -20.988605 -171.610548 -0.289031 -179.377346
Spine -16.407338 0.958557 -0.502632
Head 8.473476 -3.263588 1.062696
LeftShoulder -10.994989 -31.379470 19.674386
LeftArm 2.333921 4.443747 -8.270476
LeftForeArm 23.645080 -0.000000 -0.416247
LeftHand -0.229554 0.000000 4.940017
LeftHandThumb1 -26.253704 0.000000 33.147579
RightShoulder -9.657353 -1.585515 -11.186758
RightArm 3.123354 43.314011 9.506490
RightForeArm -35.422670 -0.000000 5.824008
RightHand -4.206814 0.000000 -4.835941
RightHandThumb1 -24.326973 -0.000000 -32.862282
LeftUpLeg -1.876096 9.964044 -0.924128
LeftLeg -5.946913 -0.000000 0.000000
LeftFoot -18.625857 25.916082 -13.311906
LeftToeBase 25.808226 -0.000000 -0.000000
RightUpLeg -2.969489 -5.892613 -0.109871
RightLeg -2.128693 -0.000000 0.000000
RightFoot -19.823259 -24.958571 15.525386
RightToeBase 23.640868 -0.000000 -0.000000
